<svg width="53" height="45" viewBox="0 0 53 45" fill="none" xmlns="http://www.w3.org/2000/svg">
<path d="M30 11.25H22.5C21.4646 11.25 20.625 10.4104 20.625 9.375V5.625C20.625 2.52319 23.1482 0 26.25 0C29.3518 0 31.875 2.52319 31.875 5.625V9.375C31.875 10.4104 31.0354 11.25 30 11.25ZM24.375 7.5H28.125V5.625C28.125 4.59131 27.2837 3.75 26.25 3.75C25.2163 3.75 24.375 4.59131 24.375 5.625V7.5Z" fill="#2AA7FF"/>
<path d="M35.625 7.5H5.625C2.52319 7.5 0 10.0232 0 13.125V35.625C0 38.7268 2.52319 41.25 5.625 41.25H9.375V37.5H5.625C4.59131 37.5 3.75 36.6587 3.75 35.625V13.125C3.75 12.0913 4.59131 11.25 5.625 11.25H35.625C42.8623 11.25 48.75 17.1377 48.75 24.375V35.625C48.75 36.6587 47.9087 37.5 46.875 37.5H43.125V41.25H46.875C49.9768 41.25 52.5 38.7268 52.5 35.625V24.375C52.5 15.0705 44.9295 7.5 35.625 7.5Z" fill="#2AA7FF"/>
<path d="M35.625 37.5H16.875V41.25H35.625V37.5Z" fill="#2AA7FF"/>
<path d="M13.125 45C10.0232 45 7.5 42.4768 7.5 39.375C7.5 36.2732 10.0232 33.75 13.125 33.75C16.2268 33.75 18.75 36.2732 18.75 39.375C18.75 42.4768 16.2268 45 13.125 45ZM13.125 37.5C12.0913 37.5 11.25 38.3413 11.25 39.375C11.25 40.4087 12.0913 41.25 13.125 41.25C14.1587 41.25 15 40.4087 15 39.375C15 38.3413 14.1587 37.5 13.125 37.5Z" fill="#2AA7FF"/>
<path d="M39.375 45C36.2732 45 33.75 42.4768 33.75 39.375C33.75 36.2732 36.2732 33.75 39.375 33.75C42.4768 33.75 45 36.2732 45 39.375C45 42.4768 42.4768 45 39.375 45ZM39.375 37.5C38.3413 37.5 37.5 38.3413 37.5 39.375C37.5 40.4087 38.3413 41.25 39.375 41.25C40.4087 41.25 41.25 40.4087 41.25 39.375C41.25 38.3413 40.4087 37.5 39.375 37.5Z" fill="#2AA7FF"/>
<path d="M20.625 20.625H16.875V16.875C16.875 15.8396 16.0354 15 15 15C13.9646 15 13.125 15.8396 13.125 16.875V20.625H9.375C8.33962 20.625 7.5 21.4646 7.5 22.5C7.5 23.5354 8.33962 24.375 9.375 24.375H13.125V28.125C13.125 29.1604 13.9646 30 15 30C16.0354 30 16.875 29.1604 16.875 28.125V24.375H20.625C21.6604 24.375 22.5 23.5354 22.5 22.5C22.5 21.4646 21.6604 20.625 20.625 20.625Z" fill="#2AA7FF"/>
<path d="M43.125 30H31.875C30.8396 30 30 29.1604 30 28.125V16.875C30 15.8396 30.8396 15 31.875 15H35.625C40.794 15 45 19.206 45 24.375V28.125C45 29.1604 44.1604 30 43.125 30ZM33.75 26.25H41.25V24.375C41.25 21.2732 38.7268 18.75 35.625 18.75H33.75V26.25Z" fill="#2AA7FF"/>
</svg>
