<svg width="45" height="53" viewBox="0 0 45 53" fill="none" xmlns="http://www.w3.org/2000/svg">
<path d="M30.1779 25.4014L22.5002 36.1487L14.8224 25.4014L11.4803 27.0726C11.5241 27.1609 11.5408 27.2569 11.5999 27.3396L20.9749 40.4646C21.3264 40.9571 21.894 41.25 22.5002 41.25C23.1064 41.25 23.6739 40.9571 24.0255 40.4646L33.4005 27.3396C33.4598 27.2569 33.4763 27.1609 33.5201 27.0726L30.1779 25.4014Z" fill="#2AA7FF"/>
<path d="M39.8182 28.116L29.5517 22.9922C28.7151 23.9557 27.6988 24.7451 26.5359 25.3035C26.7135 25.6088 26.9488 25.8833 27.2884 26.0524L38.1373 31.4668C40.0288 32.4208 41.2502 34.3984 41.2502 36.5059V48.7502H3.75019V36.5059C3.75019 34.3984 4.97156 32.4208 6.85556 31.4706L17.7118 26.0526C18.0516 25.8834 18.2867 25.6089 18.4643 25.3037C17.3014 24.7455 16.2851 23.9559 15.4485 22.9924L5.17462 28.1198C2.03062 29.7036 0 32.9959 0 36.5061V50.6254C0 51.6617 0.838687 52.5004 1.875 52.5004H43.1252C44.1615 52.5004 45.0002 51.6617 45.0002 50.6254V36.5061C45.0002 32.9959 42.9696 29.7036 39.8182 28.116Z" fill="#2AA7FF"/>
<path d="M13.1252 41.25H9.37518C8.33887 41.25 7.50018 40.4113 7.50018 39.375C7.50018 38.3387 8.33887 37.5 9.37518 37.5H13.1252C14.1615 37.5 15.0002 38.3387 15.0002 39.375C15.0002 40.4113 14.1615 41.25 13.1252 41.25Z" fill="#2AA7FF"/>
<path d="M31.8752 11.1867C24.8938 10.7668 21.9636 8.06047 21.9508 8.0496C21.5278 7.62303 20.9291 7.42522 20.3248 7.52403C19.7297 7.62116 19.2171 7.99822 18.9478 8.53653L17.6184 11.1953C16.6699 11.122 15.2051 10.959 13.5369 10.5837C13.3967 10.5523 13.2624 10.5745 13.125 10.5747V14.3262C16.2546 14.9843 18.6465 15 18.75 15C19.4604 15 20.1086 14.599 20.4272 13.9637L21.3317 12.1547C23.2671 13.2662 26.6509 14.6541 31.7706 14.9398C31.8069 14.9412 31.8388 14.9241 31.875 14.9233L31.8752 11.1867Z" fill="#2AA7FF"/>
<path d="M22.5002 28.125C16.2966 28.125 11.2502 23.0786 11.2502 16.875V11.25C11.2502 5.04638 16.2966 0 22.5002 0C28.7038 0 33.7502 5.04638 33.7502 11.25V16.875C33.7502 23.0786 28.7038 28.125 22.5002 28.125ZM22.5002 3.75C18.3637 3.75 15.0002 7.11356 15.0002 11.25V16.875C15.0002 21.0114 18.3637 24.375 22.5002 24.375C26.6366 24.375 30.0002 21.0114 30.0002 16.875V11.25C30.0002 7.11356 26.6366 3.75 22.5002 3.75Z" fill="#2AA7FF"/>
</svg>
