<svg width="49" height="53" viewBox="0 0 49 53" fill="none" xmlns="http://www.w3.org/2000/svg">
<path d="M46.875 52.5H24.375C23.3396 52.5 22.5 51.6604 22.5 50.625V1.875C22.5 0.839625 23.3396 0 24.375 0H46.875C47.9104 0 48.75 0.839625 48.75 1.875V50.625C48.75 51.6604 47.9104 52.5 46.875 52.5ZM26.25 48.75H45V3.75H26.25V48.75Z" fill="#2AA7FF"/>
<path d="M39.375 52.5H31.875C30.8396 52.5 30 51.6604 30 50.625V39.375C30 38.3396 30.8396 37.5 31.875 37.5H39.375C40.4104 37.5 41.25 38.3396 41.25 39.375V50.625C41.25 51.6604 40.4104 52.5 39.375 52.5ZM33.75 48.75H37.5V41.25H33.75V48.75Z" fill="#2AA7FF"/>
<path d="M24.375 52.5H1.875C0.839625 52.5 0 51.6604 0 50.625V20.625C0 19.5896 0.839625 18.75 1.875 18.75H24.375C25.4104 18.75 26.25 19.5896 26.25 20.625V50.625C26.25 51.6604 25.4104 52.5 24.375 52.5ZM3.75 48.75H22.5V22.5H3.75V48.75Z" fill="#2AA7FF"/>
<path d="M39.375 11.25H37.5V9.375C37.5 8.33962 36.6604 7.5 35.625 7.5C34.5896 7.5 33.75 8.33962 33.75 9.375V11.25H31.875C30.8396 11.25 30 12.0896 30 13.125C30 14.1604 30.8396 15 31.875 15H33.75V16.875C33.75 17.9104 34.5896 18.75 35.625 18.75C36.6604 18.75 37.5 17.9104 37.5 16.875V15H39.375C40.4104 15 41.25 14.1604 41.25 13.125C41.25 12.0896 40.4104 11.25 39.375 11.25Z" fill="#2AA7FF"/>
<path d="M9.375 33.75C8.33962 33.75 7.5 32.9104 7.5 31.875V28.125C7.5 27.0896 8.33962 26.25 9.375 26.25C10.4104 26.25 11.25 27.0896 11.25 28.125V31.875C11.25 32.9104 10.4104 33.75 9.375 33.75Z" fill="#2AA7FF"/>
<path d="M9.375 45C8.33962 45 7.5 44.1604 7.5 43.125V39.375C7.5 38.3396 8.33962 37.5 9.375 37.5C10.4104 37.5 11.25 38.3396 11.25 39.375V43.125C11.25 44.1604 10.4104 45 9.375 45Z" fill="#2AA7FF"/>
<path d="M16.875 33.75C15.8396 33.75 15 32.9104 15 31.875V28.125C15 27.0896 15.8396 26.25 16.875 26.25C17.9104 26.25 18.75 27.0896 18.75 28.125V31.875C18.75 32.9104 17.9104 33.75 16.875 33.75Z" fill="#2AA7FF"/>
<path d="M16.875 45C15.8396 45 15 44.1604 15 43.125V39.375C15 38.3396 15.8396 37.5 16.875 37.5C17.9104 37.5 18.75 38.3396 18.75 39.375V43.125C18.75 44.1604 17.9104 45 16.875 45Z" fill="#2AA7FF"/>
<path d="M39.375 33.75H31.875C30.8396 33.75 30 32.9104 30 31.875C30 30.8396 30.8396 30 31.875 30H39.375C40.4104 30 41.25 30.8396 41.25 31.875C41.25 32.9104 40.4104 33.75 39.375 33.75Z" fill="#2AA7FF"/>
</svg>
