<svg width="53" height="53" viewBox="0 0 53 53" fill="none" xmlns="http://www.w3.org/2000/svg">
<path d="M30 33.75H37.5V50.625H41.25V31.875C41.25 30.8387 40.4113 30 39.375 30H28.125C27.0887 30 26.25 30.8387 26.25 31.875V50.625H30V33.75Z" fill="#2AA7FF"/>
<path d="M46.875 15H37.5V18.75H45V48.75H7.5V18.75H15V15H5.625C4.58869 15 3.75 15.8387 3.75 16.875V50.625C3.75 51.6613 4.58869 52.5 5.625 52.5H46.875C47.9113 52.5 48.75 51.6613 48.75 50.625V16.875C48.75 15.8387 47.9113 15 46.875 15Z" fill="#2AA7FF"/>
<path d="M15 15H3.75V11.25H15V7.5H1.875C0.838688 7.5 0 8.33869 0 9.375V16.875C0 17.9113 0.838688 18.75 1.875 18.75H15V15Z" fill="#2AA7FF"/>
<path d="M50.625 7.5H37.5V11.25H48.75V15H37.5V18.75H50.625C51.6613 18.75 52.5 17.9113 52.5 16.875V9.375C52.5 8.33869 51.6613 7.5 50.625 7.5Z" fill="#2AA7FF"/>
<path d="M37.5 26.25H15C13.9637 26.25 13.125 25.4113 13.125 24.375V1.875C13.125 0.838688 13.9637 0 15 0H37.5C38.5363 0 39.375 0.838688 39.375 1.875V24.375C39.375 25.4113 38.5363 26.25 37.5 26.25ZM16.875 22.5H35.625V3.75H16.875V22.5Z" fill="#2AA7FF"/>
<path d="M30 11.25H28.125V9.375C28.125 8.33869 27.2863 7.5 26.25 7.5C25.2137 7.5 24.375 8.33869 24.375 9.375V11.25H22.5C21.4637 11.25 20.625 12.0887 20.625 13.125C20.625 14.1613 21.4637 15 22.5 15H24.375V16.875C24.375 17.9113 25.2137 18.75 26.25 18.75C27.2863 18.75 28.125 17.9113 28.125 16.875V15H30C31.0363 15 31.875 14.1613 31.875 13.125C31.875 12.0887 31.0363 11.25 30 11.25Z" fill="#2AA7FF"/>
<path d="M20.625 41.25H13.125C12.0887 41.25 11.25 40.4113 11.25 39.375V35.625C11.25 32.5232 13.7732 30 16.875 30C19.9768 30 22.5 32.5232 22.5 35.625V39.375C22.5 40.4113 21.6613 41.25 20.625 41.25ZM15 37.5H18.75V35.625C18.75 34.5904 17.9096 33.75 16.875 33.75C15.8404 33.75 15 34.5904 15 35.625V37.5Z" fill="#2AA7FF"/>
</svg>
