<svg width="54" height="54" viewBox="0 0 54 54" fill="none" xmlns="http://www.w3.org/2000/svg">
<path d="M18.9776 16.326L16.3263 18.9775L34.8887 37.5382L37.54 34.8867L18.9776 16.326Z" fill="#2AA7FF"/>
<path d="M15 53.8643C10.9937 53.8643 7.22719 52.3042 4.39463 49.4706C1.56019 46.638 0 42.8715 0 38.8643C0 34.8579 1.56 31.0905 4.39463 28.2579L28.2587 4.39369C31.0913 1.56019 34.8577 0 38.8659 0C42.8741 0 46.6387 1.56 49.4715 4.39369C52.3059 7.22625 53.8661 10.9928 53.8661 15C53.8661 19.0072 52.3061 22.7738 49.4715 25.6063L25.6074 49.4704C22.7749 52.3039 19.0082 53.8643 15 53.8643ZM38.8661 3.75C35.8596 3.75 33.0341 4.92 30.9101 7.04494L7.04606 30.9092C4.92019 33.0341 3.75019 35.8594 3.75019 38.8643C3.75019 41.8691 4.92019 44.6944 7.04606 46.8193C9.17006 48.9443 11.9953 50.1143 15.0002 50.1143C18.0068 50.1143 20.8322 48.9443 22.9562 46.8193L46.8203 22.9552C48.9461 20.8303 50.1161 18.0051 50.1161 15.0002C50.1161 11.9953 48.9461 9.17006 46.8203 7.04513C44.6963 4.92019 41.871 3.75 38.8661 3.75Z" fill="#2AA7FF"/>
<path d="M33.5616 14.2226C33.0817 14.2226 32.6021 14.0394 32.2359 13.6732C31.5036 12.9409 31.5036 11.7543 32.2359 11.0218L33.5616 9.69616C35.6966 7.55941 38.8862 6.91479 41.6878 8.05104C42.6472 8.4401 43.1087 9.53322 42.7206 10.4927C42.3324 11.453 41.2337 11.9117 40.278 11.5264C38.8772 10.9597 37.2823 11.2819 36.213 12.3485L34.8874 13.6732C34.5212 14.0394 34.0412 14.2226 33.5616 14.2226Z" fill="#2AA7FF"/>
</svg>
